<?xml version="1.0" standalone="no"?>
<!DOCTYPE svg PUBLIC "-//W3C//DTD SVG 20010904//EN"
 "http://www.w3.org/TR/2001/REC-SVG-20010904/DTD/svg10.dtd">
<svg version="1.0" xmlns="http://www.w3.org/2000/svg"
 width="1249.000000pt" height="910.000000pt" viewBox="0 0 1249.000000 910.000000"
 preserveAspectRatio="xMidYMid meet">

<g transform="translate(0.000000,910.000000) scale(0.100000,-0.100000)"
fill="#000000" stroke="none">
<path d="M320 5110 l0 -3690 2555 0 2555 0 0 1425 0 1425 -1700 0 -1700 0 0
845 0 845 1410 0 1410 0 0 -285 0 -285 290 0 290 0 0 575 0 575 -1990 0 -1990
0 0 -1425 0 -1425 1700 0 1700 0 0 -845 0 -845 -1980 0 -1980 0 0 3115 0 3115
5385 0 5385 0 0 -3405 0 -3405 285 0 285 0 0 3690 0 3690 -5955 0 -5955 0 0
-3690z"/>
<path d="M1450 7380 l0 -290 2270 0 2270 0 0 -2830 0 -2830 285 0 285 0 0
2830 0 2830 2270 0 2270 0 0 290 0 290 -4825 0 -4825 0 0 -290z"/>
<path d="M7120 3980 l0 -2560 290 0 290 0 0 2270 0 2270 560 0 560 0 0 -1135
0 -1135 290 0 290 0 0 1135 0 1135 560 0 560 0 0 -2270 0 -2270 290 0 290 0 0
2560 0 2560 -1990 0 -1990 0 0 -2560z"/>
<path d="M320 580 l0 -290 5955 0 5955 0 0 290 0 290 -5955 0 -5955 0 0 -290z"/>
</g>
</svg>
